<?xml version="1.0" encoding="UTF-8" standalone="no"?>
<svg
   xmlns:dc="http://purl.org/dc/elements/1.1/"
   xmlns:cc="http://creativecommons.org/ns#"
   xmlns:rdf="http://www.w3.org/1999/02/22-rdf-syntax-ns#"
   xmlns:svg="http://www.w3.org/2000/svg"
   xmlns="http://www.w3.org/2000/svg"
   xmlns:sodipodi="http://sodipodi.sourceforge.net/DTD/sodipodi-0.dtd"
   xmlns:inkscape="http://www.inkscape.org/namespaces/inkscape"
   width="161.75662"
   height="22.261499"
   viewBox="0 0 161.75662 22.261499"
   version="1.1"
   id="svg10"
   sodipodi:docname="logo.svg"
   inkscape:version="0.92.4 (5da689c313, 2019-01-14)">
  <metadata
     id="metadata16">
    <rdf:RDF>
      <cc:Work
         rdf:about="">
        <dc:format>image/svg+xml</dc:format>
        <dc:type
           rdf:resource="http://purl.org/dc/dcmitype/StillImage" />
        <dc:title>LOGOBAKERY</dc:title>
      </cc:Work>
    </rdf:RDF>
  </metadata>
  <defs
     id="defs14" />
  <sodipodi:namedview
     pagecolor="#ffffff"
     bordercolor="#666666"
     borderopacity="1"
     objecttolerance="10"
     gridtolerance="10"
     guidetolerance="10"
     inkscape:pageopacity="0"
     inkscape:pageshadow="2"
     inkscape:window-width="1920"
     inkscape:window-height="1001"
     id="namedview12"
     showgrid="false"
     inkscape:zoom="7.4412311"
     inkscape:cx="56.683428"
     inkscape:cy="44.875791"
     inkscape:window-x="-9"
     inkscape:window-y="-9"
     inkscape:window-maximized="1"
     inkscape:current-layer="svg10" />
  <!-- Generator: Sketch 54.1 (76490) - https://sketchapp.com -->
  <title
     id="title2">LOGOBAKERY</title>
  <desc
     id="desc4">Created with Sketch.</desc>
  <flowRoot
     xml:space="preserve"
     id="flowRoot3730"
     style="font-style:normal;font-weight:normal;font-size:26.66666603px;line-height:1.25;font-family:sans-serif;letter-spacing:0px;word-spacing:0px;fill:#000000;fill-opacity:1;stroke:none"
     transform="translate(-5.8649256,3.6174694)"><flowRegion
       id="flowRegion3732"
       style="font-size:26.66666603px"><rect
         id="rect3734"
         width="142.04639"
         height="73.24057"
         x="-12.901091"
         y="-11.893068"
         style="font-size:26.66666603px" /></flowRegion><flowPara
       id="flowPara3736" /></flowRoot>  <flowRoot
     xml:space="preserve"
     id="flowRoot3738"
     style="font-style:normal;font-weight:normal;font-size:16px;line-height:1.25;font-family:sans-serif;letter-spacing:0px;word-spacing:0px;fill:#000000;fill-opacity:1;stroke:none"
     transform="translate(-5.8649256,3.6174694)"><flowRegion
       id="flowRegion3740"
       style="font-size:16px"><rect
         id="rect3742"
         width="173.89595"
         height="40.853455"
         x="-10.885296"
         y="-13.774478"
         style="font-size:16px" /></flowRegion><flowPara
       id="flowPara3744" /></flowRoot>  <flowRoot
     xml:space="preserve"
     id="flowRoot18"
     style="font-style:normal;font-variant:normal;font-weight:normal;font-stretch:normal;font-size:40px;line-height:1.25;font-family:'Noto Sans';-inkscape-font-specification:'Noto Sans';letter-spacing:0px;word-spacing:0px;fill:#000000;fill-opacity:1;stroke:none"
     transform="translate(-5.8649256,3.6174694)"><flowRegion
       id="flowRegion20"
       style="font-style:normal;font-variant:normal;font-weight:normal;font-stretch:normal;font-family:'Noto Sans';-inkscape-font-specification:'Noto Sans'"><rect
         id="rect22"
         width="150.91589"
         height="48.916637"
         x="-12.632318"
         y="15.118591"
         style="font-style:normal;font-variant:normal;font-weight:normal;font-stretch:normal;font-family:'Noto Sans';-inkscape-font-specification:'Noto Sans'" /></flowRegion><flowPara
       id="flowPara24" /></flowRoot>  <flowRoot
     xml:space="preserve"
     id="flowRoot26"
     style="font-style:normal;font-variant:normal;font-weight:normal;font-stretch:normal;font-size:24px;line-height:1.25;font-family:'Noto Sans';-inkscape-font-specification:'Noto Sans';letter-spacing:0px;word-spacing:0px;fill:#000000;fill-opacity:1;stroke:none"
     transform="translate(-5.8649256,3.6174694)"><flowRegion
       id="flowRegion28"
       style="font-style:normal;font-variant:normal;font-weight:normal;font-stretch:normal;font-size:24px;font-family:'Noto Sans';-inkscape-font-specification:'Noto Sans'"><rect
         id="rect30"
         width="183.97493"
         height="65.311775"
         x="-3.4940455"
         y="-10.549205"
         style="font-style:normal;font-variant:normal;font-weight:normal;font-stretch:normal;font-size:24px;font-family:'Noto Sans';-inkscape-font-specification:'Noto Sans'" /></flowRegion><flowPara
       id="flowPara32" /></flowRoot>  <g
     aria-label="Papa John's Guitars"
     style="font-style:normal;font-weight:normal;font-size:40px;line-height:1.25;font-family:sans-serif;letter-spacing:0px;word-spacing:0px;fill:#000000;fill-opacity:1;stroke:none"
     id="text36">
    <path
       d="m 0.91199995,18.0135 q -0.12,0 -0.264,-0.096 -0.12,-0.072 -0.216,-0.216 -0.192,-0.168 -0.312,-0.408 Q -4.9591065e-8,17.0535 -4.9591065e-8,16.5735 q 0,-0.84 0.527999999591065,-2.424 0.168,-0.672 0.36,-1.296 Q 1.056,12.4215 1.056,12.2055 q 0,-0.192 0.048,-0.432 0.072,-0.264 0.072,-0.36 0.288,0 0.528,-0.984 0.096,-0.36 0.168,-0.5999998 0.072,-0.264 0.096,-0.408 0.048,-0.072 0.096,-0.216 0.072,-0.144 0.12,-0.264 0.192,-0.576 0.456,-1.104 0.288,-1.08 0.672,-2.256 0.408,-1.2 0.672,-1.776 l 0.288,-0.72 q 0.024,-0.072 0.096,-0.264 0.096,-0.216 0.096,-0.312 0,-0.096 -0.072,-0.144 -0.168,-0.12 -0.168,-0.48 0,-0.6 0.456,-0.98400002 0.264,-0.312 0.696,-0.432 0.456,-0.144 1.08,-0.144 0.264,0 0.936,0.048 0.288,0.024 1.536,0.024 0.144,0.072 0.528,0.216 0.816,0.336 0.816,0.40800002 0,0.12 0.072,0.168 0.096,0.048 0.264,0.072 0.264,0 0.936,0.648 0.696,0.648 0.96,1.2 0.216,0.432 0.288,0.672 0.096,0.24 0.096,0.6 0,0.144 -0.048,0.528 -0.048,0.384 -0.12,0.744 -0.072,0.36 -0.168,0.456 -0.384,0.288 -0.384,0.504 0,0.24 -0.696,1.344 -0.696,1.104 -1.224,1.608 Q 9.624,10.2855 8.76,10.8375 q -1.008,0.456 -2.28,0.792 -1.248,0.336 -1.896,0.312 -0.768,0.12 -0.96,0.216 -0.168,0.072 -0.264,0.384 -0.12,0.336 -0.24,0.672 -0.096,0.336 -0.096,0.456 -0.144,0.264 -0.6,1.608 -0.432,1.344 -0.6,2.064 -0.096,0.312 -0.384,0.48 -0.288,0.192 -0.52800005,0.192 z M 4.32,9.9975002 q 0.048,0.048 0.264,0.048 0.624,0 1.632,-0.3839998 0.864,-0.288 1.92,-0.936 0.528,-0.36 1.248,-1.272 0.144,-0.24 0.576,-1.128 0.192,-0.336 0.36,-0.864 0.192,-0.528 0.192,-0.936 0,-0.192 -0.024,-0.288 -0.24,-1.248 -1.392,-1.656 -0.768,-0.12 -1.08,-0.12 -0.168,0 -0.552,0.048 -0.384,0.12 -0.552,0.336 -0.144,0.192 -0.432,0.912 -0.768,1.464 -1.008,2.112 -0.456,1.632 -0.792,2.52 -0.336,0.864 -0.384,1.008 v 0.096 q 0,0.144 -0.024,0.288 -0.024,0.144 0.048,0.216 z"
       style="font-style:normal;font-variant:normal;font-weight:bold;font-stretch:normal;font-size:24px;font-family:Caveat;-inkscape-font-specification:'Caveat Bold'"
       id="path69" />
    <path
       d="m 11.4405,16.1415 q -0.072,-0.144 -0.408,-0.384 -0.336,-0.24 -0.336,-0.288 0,-0.096 -0.12,-0.264 -0.096,-0.192 -0.192,-0.336 -0.192,-0.192 0.264,-1.248 0.456,-1.056 1.224,-2.496 0.144,-0.144 0.36,-0.504 0.24,-0.36 0.312,-0.408 0,-0.096 0.072,-0.168 0.072,-0.096 0.168,-0.096 l 0.192,-0.384 q 0.096,-0.216 0.936,-1.032 0.84,-0.816 1.32,-1.104 0.456,-0.312 0.984,-0.312 0.576,0 0.984,0.336 l 0.648,0.552 q 0.72,0.6 0.816,0.696 l 0.888,0.792 -0.408,1.1999998 q -0.216,0.648 -0.216,1.224 0,0.912 0.504,1.704 0.12,0.264 0.312,0.408 0.216,0.144 0.552,0.192 0.528,0.096 0.528,0.528 0,0.528 -0.192,0.792 -0.192,0.264 -0.456,0.336 -0.384,0.048 -0.528,0.048 -0.696,0 -1.272,-0.36 -0.576,-0.36 -1.008,-1.224 -0.096,-0.144 -0.264,-0.528 -0.144,-0.384 -0.168,-0.528 -0.168,0.24 -0.552,0.624 -2.472,2.496 -4.008,2.496 -0.528,0 -0.936,-0.264 z m 1.32,-1.992 q 0.384,0.048 1.488,-0.864 0.12,-0.096 0.264,-0.216 0.144,-0.144 0.312,-0.288 0.672,-0.552 1.032,-0.912 0.384,-0.384 0.768,-0.912 l 0.528,-0.864 q -0.24,-0.5279998 -0.432,-0.6959998 -0.192,-0.192 -0.384,-0.192 -0.48,0 -1.2,0.8639998 -0.72,0.84 -1.728,2.568 -0.264,0.432 -0.432,0.912 -0.168,0.456 -0.216,0.6 z"
       style="font-style:normal;font-variant:normal;font-weight:bold;font-stretch:normal;font-size:24px;font-family:Caveat;-inkscape-font-specification:'Caveat Bold'"
       id="path71" />
    <path
       d="m 20.4,22.2615 q -0.24,0 -0.36,-0.216 -0.024,-0.024 -0.216,-0.288 -0.192,-0.264 -0.192,-0.768 0,-0.096 0.048,-0.384 0.264,-1.008 0.264,-1.392 0,-0.12 0.048,-0.36 0.048,-0.216 0.072,-0.408 0.096,-0.168 0.168,-0.528 0.096,-0.336 0.096,-0.6 0,-0.12 0.072,-0.288 0.096,-0.144 0.216,-0.24 0,-0.144 0.072,-0.432 0.072,-0.312 0.096,-0.432 0.12,-0.648 0.936,-3.072 0.816,-2.424 1.392,-3.9119998 0.288,-0.672 0.48,-1.248 0.192,-0.576 0.192,-0.816 0,-0.096 0.048,-0.168 0.072,-0.096 0.216,-0.24 0.192,-0.192 0.504,-0.192 0.408,0 0.792,0.264 0.168,0.264 0.24,0.456 0.072,0.192 0.072,0.432 0,0.072 -0.048,0.456 0,0.504 -0.288,0.912 -0.288,0.408 -0.264,0.384 1.176,-0.72 2.184,-0.72 1.08,0 1.728,0.768 0.648,0.744 0.648,1.7759998 0,0.408 -0.384,1.224 -0.384,0.792 -0.624,1.008 -0.144,0 -0.384,0.504 -0.288,0.384 -1.104,0.816 -0.792,0.408 -1.08,0.312 -0.024,0 -0.072,0.072 -0.048,0.048 -0.048,0.144 0,0.096 -0.72,0.336 -0.72,0.24 -1.248,0.24 -0.288,0 -0.432,-0.024 -0.144,-0.048 -0.288,-0.168 -0.168,0.168 -0.168,0.312 0,0.24 -0.24,0.768 -0.24,0.504 -0.384,0.504 -0.024,0.024 -0.072,0.096 -0.024,0.072 0.072,0.168 0,0.072 -0.024,0.336 -0.024,0.264 -0.12,0.408 0,0.216 -0.072,0.576 -0.072,0.384 -0.168,0.576 0,0.288 -0.096,0.552 -0.072,0.288 -0.168,0.288 -0.144,0.048 -0.144,0.696 -0.024,0.576 -0.384,1.032 -0.336,0.456 -0.648,0.456 z m 3.288,-8.424 q 0.336,0 1.248,-0.36 0.936,-0.384 1.368,-0.744 0.552,-0.456 0.84,-0.84 0.288,-0.384 0.288,-0.768 0,-0.336 -0.216,-0.648 -0.168,-0.264 -0.504,-0.264 -0.792,0 -2.064,1.224 -0.432,0.456 -0.768,1.152 -0.336,0.672 -0.336,1.032 0,0.216 0.144,0.216 z"
       style="font-style:normal;font-variant:normal;font-weight:bold;font-stretch:normal;font-size:24px;font-family:Caveat;-inkscape-font-specification:'Caveat Bold'"
       id="path73" />
    <path
       d="m 32.78175,16.3095 q -0.24,0.048 -0.432,0.048 -0.312,0 -0.576,-0.048 -0.264,-0.072 -0.264,-0.168 0,-0.072 -0.024,-0.096 -0.024,-0.024 -0.096,-0.024 -0.072,-0.072 -0.336,-0.24 -0.24,-0.192 -0.408,-0.264 -0.288,-0.408 -0.288,-0.888 0,-0.456 0.288,-1.464 0.024,-0.936 0.672,-2.088 0.672,-1.1759998 1.608,-2.1599998 0.936,-1.008 1.68,-1.44 0.36,-0.36 1.008,-0.36 0.504,0 0.888,0.216 0.312,0.192 0.768,0.816 0.48,0.624 0.72,1.128 0.048,0.168 0.12,0.456 0.096,0.2879998 0.096,0.6959998 l -0.048,0.672 q -0.288,0.984 -0.288,1.776 -0.048,0.336 0.048,0.552 0.096,0.192 0.264,0.192 0.12,0 0.264,-0.072 0.144,-0.072 0.336,-0.072 0.312,0 0.528,0.192 0.216,0.192 0.216,0.48 0,0.24 -0.12,0.456 -0.216,0.48 -0.816,0.864 -0.576,0.384 -1.08,0.384 -0.408,0 -0.792,-0.432 -0.36,-0.432 -0.576,-1.128 l -0.144,-0.552 -0.864,0.792 -0.552,0.552 q -0.384,0.384 -0.432,0.456 -0.12,0.192 -0.432,0.36 -0.288,0.168 -0.936,0.408 z m 0.648,-2.304 q 0.432,-0.24 0.72,-0.6 0.312,-0.36 0.768,-1.008 0.096,-0.144 0.192,-0.288 0.096,-0.168 0.24,-0.336 0.408,-0.552 0.576,-0.888 0.192,-0.336 0.288,-0.72 -0.096,-0.3119998 -0.288,-0.5759998 -0.168,-0.288 -0.312,-0.312 -0.672,0 -1.824,1.5839998 -0.12,0.168 -0.384,0.6 -0.24,0.432 -0.312,0.576 -0.12,0.168 -0.336,0.816 -0.192,0.624 -0.192,0.816 0,0.528 0.312,0.528 0.24,0 0.552,-0.192 z"
       style="font-style:normal;font-variant:normal;font-weight:bold;font-stretch:normal;font-size:24px;font-family:Caveat;-inkscape-font-specification:'Caveat Bold'"
       id="path75" />
    <path
       d="m 44.55,21.3975 q -0.96,-0.552 -1.464,-1.632 -0.528,-1.056 -0.528,-2.304 0,-0.36 0.024,-0.528 0.024,-0.432 0.264,-0.744 0.24,-0.336 0.552,-0.336 0.288,0 0.432,0.264 0.144,0.24 0.12,0.36 0,0.168 0.144,0.456 0.144,0.408 0.192,0.864 0.072,0.408 0.144,0.6 0.072,0.216 0.312,0.384 0.024,0.048 0.12,0.24 0.12,0.216 0.312,0.216 0.336,0.264 0.456,0.264 0.168,0 0.504,-0.552 0.336,-0.6 1.176,-2.544 0.864,-1.944 1.032,-2.424 0.024,-0.024 0.072,-0.096 0.072,-0.096 0.12,-0.24 -0.024,-0.144 0.192,-0.744 0.216,-0.624 0.312,-0.888 0.432,-1.128 0.672,-1.968 l 0.984,-2.9759998 q 1.416,-4.2 1.464,-4.608 0,-0.144 -0.024,-0.24 -0.024,-0.096 -0.12,-0.096 -0.096,0 -0.576,0.144 -0.168,0.048 -0.648,0.048 -0.624,0 -0.936,0.072 -0.432,0.048 -0.768,-0.384 -0.336,-0.456 -0.336,-1.00800002 0,-0.096 0.048,-0.336 0,-0.096 0.384,-0.168 0.408,-0.096 0.792,-0.072 h 0.048 q 0.096,0 0.216,-0.048 0.144,-0.048 0.192,-0.048 0.528,-0.216 1.008,-0.144 h 0.072 q 0.168,0 0.288,-0.048 0.144,-0.048 0.192,-0.072 0.048,0 0.336,0.096 0.288,0.096 0.528,0.096 0.144,0 0.192,-0.024 h 0.024 q 0.144,0 0.336,-0.096 0.216,-0.096 0.288,-0.12 0.072,-0.072 0.312,0.24 0.264,0.312 0.408,0.576 0.072,0.21600002 0.072,0.48000002 0,0.336 -0.12,0.912 -0.12,0.552 -0.144,0.72 0,0 -0.264,0.792 -0.216,0.696 -0.288,0.864 -0.024,0.384 -0.144,0.864 -0.12,0.48 -0.264,0.744 -0.456,1.44 -0.648,2.016 -0.168,0.576 -0.216,0.72 0,0.024 -0.024,0.12 -0.024,0.096 -0.096,0.288 -0.12,0.024 -0.192,0.24 -0.048,0.192 -0.048,0.336 -0.048,0.096 -0.144,0.2399998 -0.072,0.144 -0.168,0.24 v 0.024 q 0,0.288 -0.168,0.504 0,0.336 -0.12,0.72 -0.096,0.384 -0.552,1.416 -0.024,0.192 -0.648,1.752 -0.36,0.984 -0.36,1.008 -0.024,0.072 -0.168,0.36 -0.12,0.288 -0.24,0.552 -0.672,1.368 -1.176,2.544 -0.528,1.2 -1.272,1.8 -0.72,0.6 -1.464,0.6 -0.552,0 -1.008,-0.288 z"
       style="font-style:normal;font-variant:normal;font-weight:bold;font-stretch:normal;font-size:24px;font-family:Caveat;-inkscape-font-specification:'Caveat Bold'"
       id="path77" />
    <path
       d="m 56.200875,16.8615 q -0.288,0.024 -0.48,-0.048 -0.168,-0.048 -0.504,-0.264 -0.528,-0.408 -0.888,-1.008 -0.336,-0.6 -0.312,-1.008 0.024,-0.072 0.024,-0.216 0,-0.144 -0.024,-0.216 -0.024,-0.096 -0.024,-0.12 -0.096,-0.072 -0.12,-0.096 0,-0.048 0.024,-0.096 0.048,-0.048 0.072,-0.096 0.096,-0.024 0.096,-0.096 0,-0.072 -0.048,-0.168 -0.072,-0.192 0.072,-0.864 0.168,-0.696 0.432,-1.296 0.192,-0.456 0.6,-1.176 0.432,-0.7199998 0.792,-1.1039998 0.6,-0.696 0.984,-1.032 0.408,-0.336 0.912,-0.528 0.408,-0.168 0.84,-0.168 0.576,0 1.008,0.336 1.368,0.384 1.656,1.488 0.144,0.504 0.144,1.1279998 0,1.344 -0.84,2.952 -0.456,0.912 -0.912,1.512 -0.432,0.576 -1.056,1.104 -0.432,0.36 -1.152,0.672 -0.696,0.288 -1.296,0.408 z m 2.088,-3.624 q 0.312,-0.456 0.504,-0.864 0.192,-0.408 0.336,-1.104 0.096,-0.432 0.096,-0.864 0,-0.7679998 -0.216,-0.8399998 -0.168,-0.072 -0.336,-0.072 -0.504,0 -1.056,0.6479998 -0.552,0.6 -0.816,1.176 -0.264,0.576 -0.6,1.848 -0.096,0.384 -0.096,0.768 0,0.384 0.12,0.624 0.12,0.216 0.36,0.216 0.672,0 1.704,-1.536 z"
       style="font-style:normal;font-variant:normal;font-weight:bold;font-stretch:normal;font-size:24px;font-family:Caveat;-inkscape-font-specification:'Caveat Bold'"
       id="path79" />
    <path
       d="m 70.22475,16.2615 q -0.528,0.24 -0.912,0.24 -0.696,0 -1.128,-0.552 -0.432,-0.552 -0.432,-1.608 0,-1.056 0.408,-2.28 0.072,-0.168 0.192,-0.408 0.12,-0.24 0.048,-0.24 -0.12,0 -0.432,0.312 -1.176,1.056 -1.968,2.208 -0.768,1.128 -0.768,1.752 0,0.264 -0.216,0.408 -0.192,0.144 -0.456,0.144 -0.168,0 -0.312,-0.072 -0.528,-0.312 -0.864,-0.864 -0.336,-0.576 -0.264,-1.392 0.096,-1.656 0.336,-2.904 0.264,-1.2719998 0.984,-3.5999998 0.024,-0.072 0.456,-1.224 0.744,-2.112 0.84,-2.304 0.168,-0.168 0.48,-1.032 0.336,-0.888 0.336,-1.08 0,-0.192 0.096,-0.36 0.12,-0.192 0.144,-0.24 0.264,-0.60000002 0.456,-0.60000002 0.216,0 0.672,0.288 0.48,0.26400002 0.552,0.50400002 0.192,0.384 0.192,0.72 0,0.36 -0.192,0.864 -0.192,0.48 -0.648,1.344 -0.696,1.392 -1.296,3.192 -0.288,0.768 -0.696,2.184 -0.408,1.4159998 -0.408,1.6799998 0,0.168 0.168,0.168 0.192,0 0.408,-0.288 0.072,-0.144 0.312,-0.36 0.24,-0.216 0.384,-0.384 0.504,-0.6239998 1.152,-1.2479998 0.648,-0.624 0.984,-0.624 0.864,0 1.296,1.08 0.096,0.096 0.144,0.192 0.048,0.096 0.096,0.1439998 0.12,0.12 0.12,0.6 0,0.816 -0.384,1.968 -0.264,1.056 -0.264,1.44 0,0.312 0.168,0.312 0.072,-0.048 0.288,-0.168 0.216,-0.12 0.504,-0.288 0.528,-0.312 0.84,-0.312 0.24,0 0.36,0.144 0.12,0.12 0.12,0.312 0,0.168 -0.168,0.504 -0.144,0.336 -0.144,0.384 v 0.12 q 0,0.096 -0.648,0.624 -0.648,0.528 -0.936,0.6 z"
       style="font-style:normal;font-variant:normal;font-weight:bold;font-stretch:normal;font-size:24px;font-family:Caveat;-inkscape-font-specification:'Caveat Bold'"
       id="path81" />
    <path
       d="m 81.118125,15.9255 q -0.36,0 -0.72,-0.192 -0.36,-0.192 -0.576,-0.576 l -0.12,-0.24 q -0.288,-0.816 -0.288,-1.584 v -1.056 q 0,-0.264 -0.048,-0.264 -0.192,0 -1.656,1.56 -1.032,1.08 -1.8,1.68 -0.744,0.576 -1.032,0.576 -0.096,0 -0.456,-0.168 -0.36,-0.192 -0.456,-0.288 -0.168,-0.168 -0.216,-0.408 -0.048,-0.24 -0.048,-0.912 0,-0.768 0.312,-1.728 0.312,-0.984 1.056,-2.6159998 0.192,-0.336 0.384,-0.816 0.552,-1.248 1.032,-1.728 0.192,0 0.264,0.024 0.312,0.024 0.72,0.288 0.432,0.264 0.528,0.696 0,0.408 -0.12,0.816 -0.12,0.408 -0.552,1.008 -0.264,0.3599998 -0.696,1.5599998 -0.12,0.192 -0.336,0.6 -0.192,0.384 -0.192,0.432 0.024,0.024 0.144,-0.096 0.12,-0.144 0.24,-0.264 l 0.648,-0.648 q 1.896,-1.8959998 2.928,-1.9439998 0.528,0 0.936,0.5519998 0.408,0.552 0.408,1.32 0,0.144 -0.048,0.816 v 1.368 q 0.552,-0.144 0.84,-0.264 0.6,-0.216 1.248,-0.264 -0.048,0.408 -0.456,1.08 -0.384,0.672 -0.912,1.176 -0.528,0.504 -0.96,0.504 z"
       style="font-style:normal;font-variant:normal;font-weight:bold;font-stretch:normal;font-size:24px;font-family:Caveat;-inkscape-font-specification:'Caveat Bold'"
       id="path83" />
    <path
       d="m 86.99775,6.3015002 q -0.288,0.048 -0.36,0.048 -0.36,0 -0.648,-0.24 -0.12,-0.408 0.288,-0.984 0.912,-1.488 1.152,-2.16 0.024,-0.192 0.144,-0.672 0.12,-0.48 0.12,-0.888 -0.024,-0.216 0.144,-0.64800002 0.168,-0.432 0.336,-0.36 0.096,0.048 0.48,0.24 0.408,0.168 0.648,0.40800002 0.264,0.24 0.216,0.48 -0.048,0.624 -0.312,1.44 -0.264,0.792 -0.312,0.96 -0.24,0.912 -1.32,2.136 0,0.048 -0.072,0.096 -0.072,0.024 -0.216,0.072 -0.12,0.024 -0.288,0.072 z"
       style="font-style:normal;font-variant:normal;font-weight:bold;font-stretch:normal;font-size:24px;font-family:Caveat;-inkscape-font-specification:'Caveat Bold'"
       id="path85" />
    <path
       d="m 89.85825,17.0055 q -0.576,0 -1.2,-0.24 -0.6,-0.24 -1.032,-0.576 -0.408,-0.36 -0.408,-0.648 0,-0.288 0.264,-0.36 l 0.12,-0.096 q 0.048,-0.024 0.192,-0.024 0.096,-0.024 0.24,0.024 0.144,0.024 0.24,0.024 0.168,0.048 0.504,0.096 l 0.624,0.072 q 0.48,0 0.888,-0.096 0.432,-0.096 0.432,-0.216 0,-0.072 -0.192,-0.24 -0.192,-0.168 -0.408,-0.168 0,-0.096 -0.744,-0.648 -0.408,-0.312 -0.792,-0.624 -0.36,-0.312 -0.36,-0.456 l 0.024,-0.048 v -0.12 q -0.168,0 -0.312,-0.456 -0.144,-0.456 -0.144,-0.888 0,-0.816 0.72,-1.7999998 0.72,-0.984 1.776,-1.776 1.08,-0.792 2.04,-1.08 0.36,-0.168 1.056,-0.168 0.456,0 0.624,0.096 l 0.192,-0.048 q 0.288,0 0.744,0.48 0.456,0.48 0.576,0.768 0,0.792 -0.048,1.272 -0.048,0.48 -0.24,0.48 -0.024,0 -0.072,0.024 -0.048,0.024 -0.048,0.12 0,0.3359998 -0.6,0.7439998 -0.576,0.408 -1.056,0.408 l -0.096,-0.024 q -0.144,-0.024 -0.432,-0.288 -0.264,-0.264 -0.264,-0.5279998 0,-0.072 0.288,-0.384 0.288,-0.312 0.48,-0.6 0.216,-0.312 0.216,-0.648 0,-0.12 -0.096,-0.144 -0.072,-0.048 -0.312,-0.048 -1.32,0.6 -1.896,1.128 -0.072,0.144 -0.144,0.216 -0.048,0.072 -0.144,0.072 0,0 0,0 0,-0.024 -0.024,-0.024 -0.048,0 -0.312,0.288 -0.264,0.2639998 -0.504,0.6239998 -0.216,0.36 -0.264,0.672 l -0.048,0.072 v 0.12 q -0.024,0.048 -0.024,0.192 0,0.216 0.192,0.456 0.192,0.216 0.768,0.624 1.08,0.816 1.464,1.224 0.408,0.384 0.504,0.696 0.216,0.432 0.216,0.768 0,0.816 -0.864,1.272 -0.84,0.432 -2.304,0.432 z"
       style="font-style:normal;font-variant:normal;font-weight:bold;font-stretch:normal;font-size:24px;font-family:Caveat;-inkscape-font-specification:'Caveat Bold'"
       id="path87" />
    <path
       d="m 104.44537,18.2295 q -0.672,0 -1.296,-0.432 -0.6,-0.432 -1.008,-1.224 -0.384,-0.816 -0.384,-1.872 0,-3.168 0.984,-6.0239998 1.128,-3.336 2.376,-5.208 1.272,-1.872 2.424,-2.59200002 0.36,-0.216 1.08,-0.432 0.72,-0.216 1.44,-0.216 0.384,0 0.888,0.072 1.008,0.264 1.968,0.91200002 0.984,0.648 0.984,1.416 0,0.384 -0.432,0.792 -0.432,0.384 -0.888,0.384 -0.24,0 -0.36,-0.144 -0.456,-0.648 -0.912,-0.96 -0.456,-0.336 -1.104,-0.336 -1.752,0 -3.144,2.184 -1.392,2.16 -2.208,5.064 -0.816,2.9039998 -0.936,4.9199998 0,0.768 0.216,1.128 0.216,0.36 0.768,0.36 0.912,0 2.136,-0.696 1.248,-0.72 2.064,-1.992 1.032,-1.944 1.032,-2.616 0,-0.384 -0.36,-0.384 -1.2,0 -1.728,-0.096 -0.528,-0.096 -0.696,-0.4559998 -0.312,-0.096 -0.312,-0.48 0,-0.552 0.48,-0.816 0.48,-0.264 1.68,-0.264 1.008,0.024 1.632,0.216 0.648,0.168 1.032,0.72 0.384,0.528 0.384,1.5359998 0,0.432 -0.072,0.792 -0.456,2.064 -1.824,3.6 -1.368,1.536 -3.024,2.328 -1.632,0.816 -2.88,0.816 z"
       style="font-style:normal;font-variant:normal;font-weight:bold;font-stretch:normal;font-size:24px;font-family:Caveat;-inkscape-font-specification:'Caveat Bold'"
       id="path89" />
    <path
       d="m 119.18475,16.5975 q -0.216,-0.216 -0.36,-0.552 -0.12,-0.36 -0.312,-1.08 -0.048,-0.144 -0.048,-0.408 0,-0.288 0,-0.408 -0.096,0.216 -0.24,0.48 -0.144,0.24 -0.288,0.336 -0.552,0.552 -1.104,0.816 -0.768,0.48 -1.32,0.48 -0.672,0 -1.152,-0.624 -0.768,-0.624 -0.768,-1.488 0,-0.12 0.048,-0.456 0.048,-0.888 0.24,-1.704 0.216,-0.816 0.792,-2.0879998 l 0.72,-1.44 0.384,-0.744 q 0.12,-0.048 0.384,-0.048 0.384,0 0.72,0.144 0.336,0.144 0.36,0.384 0.072,0.096 0.072,0.36 0,0.768 -0.648,2.0399998 l -0.192,0.456 q -0.432,1.032 -0.624,1.608 -0.192,0.576 -0.192,0.96 0,0.384 0.288,0.504 0.12,0.072 0.288,0.072 0.48,0 1.152,-0.744 0.696,-0.744 1.416,-2.496 0.336,-0.816 0.408,-1.6799998 -0.048,-0.264 0.144,-0.576 0.192,-0.312 0.504,-0.504 0.096,-0.144 0.264,-0.216 0.168,-0.096 0.216,0 l 0.384,-0.024 q 0.072,-0.024 0.216,0.216 0.168,0.24 0.24,0.288 0.24,0.192 0.24,0.768 0,0.7919998 -0.576,2.1839998 -0.456,0.96 -0.624,1.488 -0.144,0.504 -0.168,0.984 0,0.504 0.072,0.792 0.096,0.264 0.432,0.552 0.384,0.264 0.312,1.248 -0.048,0.168 -0.264,0.264 -0.216,0.096 -0.528,0.096 -0.528,0 -0.888,-0.24 z"
       style="font-style:normal;font-variant:normal;font-weight:bold;font-stretch:normal;font-size:24px;font-family:Caveat;-inkscape-font-specification:'Caveat Bold'"
       id="path91" />
    <path
       d="m 126.29212,6.6615002 q -0.072,0.072 -0.144,0.072 -0.096,0 -0.312,-0.144 -0.24,-0.024 -0.648,-0.408 -0.384,-0.384 -0.384,-0.504 -0.024,-0.288 0.048,-0.816 0.072,-0.552 0.264,-0.984 0.216,-0.432 0.552,-0.456 0.168,0.024 0.456,0.12 0.288,0.072 0.648,0.216 0.456,0.912 0.456,1.56 0,0.96 -0.936,1.344 z m -2.208,9.9599998 q -0.576,0 -1.008,-0.6 -0.408,-0.6 -0.504,-1.488 0.096,-0.888 0.144,-1.296 0.264,-1.176 0.648,-2.76 0.408,-1.6079998 0.48,-1.7759998 0.12,-0.216 0.384,-0.216 0.264,0 0.576,0.216 0.336,0.192 0.552,0.552 0.192,0.264 0.192,0.6 0,0.5039998 -0.48,2.1119998 -0.336,1.2 -0.432,1.704 -0.096,0.504 -0.072,1.08 -0.096,1.08 -0.192,1.488 -0.096,0.408 -0.288,0.384 z"
       style="font-style:normal;font-variant:normal;font-weight:bold;font-stretch:normal;font-size:24px;font-family:Caveat;-inkscape-font-specification:'Caveat Bold'"
       id="path93" />
    <path
       d="m 130.18762,16.7895 q -0.528,-0.144 -1.368,-0.888 -0.408,-0.528 -0.48,-0.936 -0.072,-0.432 -0.072,-1.68 0,-0.576 0.576,-2.88 0.024,-0.096 0.168,-0.6479998 0.072,-0.264 -0.192,-0.336 -0.264,-0.072 -0.744,-0.072 -0.408,0 -0.48,-0.048 -0.072,-0.024 -0.096,-0.216 0,-0.192 0,-0.264 0,-0.072 -0.12,-0.144 -0.096,-0.072 -0.144,-0.144 -0.072,-0.096 0.12,-0.36 0.192,-0.264 0.432,-0.312 0.144,-0.024 0.624,-0.072 0.48,-0.048 0.912,-0.192 0.456,-0.144 0.672,-0.408 0.312,-0.816 0.72,-1.728 0.432,-0.912 0.6,-1.08 0.384,-0.192 0.696,-0.192 0.528,0 0.816,0.432 0.072,0.096 0.168,0.192 0.096,0.096 0.096,0.216 0,0.168 -0.168,0.528 -0.144,0.36 -0.6,1.176 l -0.312,0.6 q 0.072,0.024 0.336,0.024 0.264,0 0.432,-0.024 0.528,-0.096 0.816,-0.096 0.216,0 0.312,0.024 1.008,0 1.104,1.104 0.048,0.288 -0.216,0.48 -0.24,0.168 -0.864,0.168 -2.472,0.096 -2.496,0.216 -0.12,0.072 -0.384,0.744 -0.264,0.6719998 -0.432,1.2719998 -0.288,1.248 -0.288,2.352 0,1.056 0.312,1.368 0.096,0.096 0.264,0.096 0.432,0 1.224,-0.648 0.264,-0.24 0.576,-0.24 0.264,0 0.408,0.192 0.168,0.192 0.168,0.504 0,0.36 -0.24,0.696 -0.36,0.552 -1.08,0.912 -0.72,0.36 -1.368,0.36 -0.288,0 -0.408,-0.048 z"
       style="font-style:normal;font-variant:normal;font-weight:bold;font-stretch:normal;font-size:24px;font-family:Caveat;-inkscape-font-specification:'Caveat Bold'"
       id="path95" />
    <path
       d="m 136.4055,16.2135 q -0.408,0.096 -0.984,-0.432 -0.576,-0.528 -0.672,-0.984 -0.048,-0.24 -0.048,-0.408 0,-0.936 0.6,-2.256 0.6,-1.344 1.608,-2.5199998 1.032,-1.176 2.256,-1.704 0.504,-0.264 0.648,-0.264 0.144,0 0.648,0.264 0.48,0.12 0.768,0.264 0.288,0.144 0.528,0.456 0.312,0.624 0.456,1.5359998 0.144,0.504 0.144,0.72 0,0.192 -0.144,0.336 -0.024,0.024 -0.096,0.096 -0.048,0.072 -0.048,0.12 0,0.024 0.048,0.024 0,0.024 -0.024,0.12 -0.024,0.072 -0.096,0.216 -0.288,0.912 -0.288,1.416 0,0.168 0.048,0.408 0.24,0.624 0.6,0.624 0.336,0 0.768,-0.432 0.36,-0.24 0.72,-0.24 0.216,0 0.216,0.12 0.024,0.024 0.096,0.072 0.072,0.048 0.144,0.048 0.096,0 0.096,0.216 0,0.192 -0.096,0.504 -0.072,0.312 -0.192,0.504 -0.168,0.168 -0.264,0.288 -0.096,0.12 -0.096,0.192 l -0.36,0.336 q -0.456,0.264 -1.08,0.264 -0.648,0 -1.032,-0.264 -0.384,-0.264 -0.72,-0.648 -0.336,-0.408 -0.432,-0.72 l -0.12,-0.24 -0.696,0.456 -0.6,0.624 q -0.192,0.24 -0.336,0.24 h -0.24 q 0,0.168 -0.672,0.408 -0.672,0.24 -1.056,0.24 z m 0.504,-2.016 q 0.264,0 1.08,-0.6 0.84,-0.624 1.128,-0.984 0.096,-0.12 0.24,-0.336 0.168,-0.24 0.288,-0.36 0.384,-0.456 0.552,-0.72 0.192,-0.288 0.192,-0.552 0,-0.192 -0.168,-0.528 -0.096,-0.2879998 -0.288,-0.2879998 -0.096,0 -0.552,0.168 -0.456,0.2639998 -1.08,1.0799998 -0.6,0.816 -1.056,1.656 -0.456,0.84 -0.456,1.224 0,0.072 0.048,0.144 0.048,0.072 0.072,0.096 z"
       style="font-style:normal;font-variant:normal;font-weight:bold;font-stretch:normal;font-size:24px;font-family:Caveat;-inkscape-font-specification:'Caveat Bold'"
       id="path97" />
    <path
       d="m 145.78762,16.2855 q -0.168,0 -0.456,-0.24 -0.264,-0.24 -0.312,-0.432 -0.024,-0.048 -0.024,-0.216 0,-0.312 0.288,-1.224 l 0.168,-0.768 q 0.24,-1.056 0.432,-1.776 0.072,-0.144 0.288,-0.816 0.144,-0.528 0.384,-1.0319998 0.288,-1.08 0.912,-2.136 0.072,-0.12 0.24,-0.288 0.168,-0.168 0.24,-0.168 0.144,-0.144 0.408,-0.144 0.384,0 0.696,0.264 0.312,0.36 0.312,0.768 0,0.456 -0.336,1.128 -0.192,0.528 -0.624,1.3439998 -0.336,0.6 -0.408,0.792 0.288,-0.384 1.248,-1.4399998 0.288,-0.312 0.552,-0.504 0.264,-0.216 0.792,-0.552 0.528,-0.384 0.84,-0.528 0.312,-0.168 0.72,-0.168 0.192,0 0.288,0.024 0.312,-0.024 0.648,0.408 0.36,0.432 0.36,0.984 0,0.216 -0.072,0.432 -0.288,-0.048 -0.408,-0.048 -0.48,0 -0.864,0.1919998 -0.36,0.192 -0.6,0.384 -0.24,0.168 -0.312,0.216 -0.84,0.552 -1.992,1.488 -0.576,0.48 -0.864,0.84 -0.288,0.36 -0.456,0.768 -0.048,0.144 -0.456,1.128 -0.408,0.96 -0.624,1.128 -0.12,0.264 -0.624,0.264 -0.264,0 -0.384,-0.072 z"
       style="font-style:normal;font-variant:normal;font-weight:bold;font-stretch:normal;font-size:24px;font-family:Caveat;-inkscape-font-specification:'Caveat Bold'"
       id="path99" />
    <path
       d="m 156.09262,17.0055 q -0.576,0 -1.2,-0.24 -0.6,-0.24 -1.032,-0.576 -0.408,-0.36 -0.408,-0.648 0,-0.288 0.264,-0.36 l 0.12,-0.096 q 0.048,-0.024 0.192,-0.024 0.096,-0.024 0.24,0.024 0.144,0.024 0.24,0.024 0.168,0.048 0.504,0.096 l 0.624,0.072 q 0.48,0 0.888,-0.096 0.432,-0.096 0.432,-0.216 0,-0.072 -0.192,-0.24 -0.192,-0.168 -0.408,-0.168 0,-0.096 -0.744,-0.648 -0.408,-0.312 -0.792,-0.624 -0.36,-0.312 -0.36,-0.456 l 0.024,-0.048 v -0.12 q -0.168,0 -0.312,-0.456 -0.144,-0.456 -0.144,-0.888 0,-0.816 0.72,-1.7999998 0.72,-0.984 1.776,-1.776 1.08,-0.792 2.04,-1.08 0.36,-0.168 1.056,-0.168 0.456,0 0.624,0.096 l 0.192,-0.048 q 0.288,0 0.744,0.48 0.456,0.48 0.576,0.768 0,0.792 -0.048,1.272 -0.048,0.48 -0.24,0.48 -0.024,0 -0.072,0.024 -0.048,0.024 -0.048,0.12 0,0.3359998 -0.6,0.7439998 -0.576,0.408 -1.056,0.408 l -0.096,-0.024 q -0.144,-0.024 -0.432,-0.288 -0.264,-0.264 -0.264,-0.5279998 0,-0.072 0.288,-0.384 0.288,-0.312 0.48,-0.6 0.216,-0.312 0.216,-0.648 0,-0.12 -0.096,-0.144 -0.072,-0.048 -0.312,-0.048 -1.32,0.6 -1.896,1.128 -0.072,0.144 -0.144,0.216 -0.048,0.072 -0.144,0.072 0,0 0,0 0,-0.024 -0.024,-0.024 -0.048,0 -0.312,0.288 -0.264,0.2639998 -0.504,0.6239998 -0.216,0.36 -0.264,0.672 l -0.048,0.072 v 0.12 q -0.024,0.048 -0.024,0.192 0,0.216 0.192,0.456 0.192,0.216 0.768,0.624 1.08,0.816 1.464,1.224 0.408,0.384 0.504,0.696 0.216,0.432 0.216,0.768 0,0.816 -0.864,1.272 -0.84,0.432 -2.304,0.432 z"
       style="font-style:normal;font-variant:normal;font-weight:bold;font-stretch:normal;font-size:24px;font-family:Caveat;-inkscape-font-specification:'Caveat Bold'"
       id="path101" />
  </g>
</svg>
